<?xml version="1.0" encoding="UTF-8" standalone="no"?>
<!DOCTYPE svg PUBLIC "-//W3C//DTD SVG 1.1//EN" "http://www.w3.org/Graphics/SVG/1.1/DTD/svg11.dtd">
<svg width="100%" height="100%" viewBox="0 0 266 85" version="1.1" xmlns="http://www.w3.org/2000/svg" xmlns:xlink="http://www.w3.org/1999/xlink" xml:space="preserve" xmlns:serif="http://www.serif.com/" style="fill-rule:evenodd;clip-rule:evenodd;stroke-linejoin:round;stroke-miterlimit:2;">
    <g id="Artboard1" transform="matrix(1,0,0,1,-0.361989,-0.374668)">
        <rect x="0.362" y="0.375" width="265.49" height="84.758" style="fill:none;"/>
        <g transform="matrix(1.2105,0,0,1.2105,179.309,-436.064)">
            <path d="M-86,363L-146,363L-146,428.6L-125.3,428.6C-124.1,428.6 -123.5,428.2 -122.9,427.2C-110.9,406.2 -98.8,385.3 -86.7,364.3C-86.5,363.9 -86.3,363.5 -86,363Z" style="fill:white;fill-rule:nonzero;"/>
            <path d="M-101.5,415.9C-101.9,415.9 -102.3,416.1 -102.6,416.4C-104.9,420.3 -107.2,424.3 -109.5,428.4L-80.5,428.4L-80.5,416C-80.7,415.9 -80.8,415.9 -81,415.9L-101.5,415.9Z" style="fill:white;fill-rule:nonzero;"/>
            <path d="M-95.9,404.7L-80.5,404.7L-80.5,378.3L-80.8,378.3L-95.9,404.7Z" style="fill:white;fill-rule:nonzero;"/>
            <path d="M-2.1,399.9C-2.5,399.2 -2.8,398.9 -3,398.5C-5.1,395 -7.1,391.4 -9.2,387.9C-9.4,387.5 -9.9,386.9 -10.3,386.9C-11.7,386.8 -13.1,386.9 -14.5,386.9L-14.5,404.6L-11.3,404.6L-11.3,391.4C-10.9,392 -10.6,392.4 -10.4,392.8C-8.3,396.4 -6.3,400 -4.2,403.6C-4,404 -3.5,404.6 -3.1,404.6C-1.7,404.7 -0.3,404.6 1.1,404.6L1.1,386.8L-2.1,386.8L-2.1,399.9Z" style="fill:white;fill-rule:nonzero;"/>
            <path d="M33,424C32.6,423.3 32.3,422.8 32,422.4C30,418.9 27.9,415.4 25.9,411.9C25.7,411.5 25.3,411 25,410.9C23.6,410.8 22.1,410.9 20.7,410.9L20.7,428.6L24,428.6L24,415.4C26.5,419.7 28.8,423.7 31.1,427.7C31.3,428.1 31.7,428.6 32,428.6C33.4,428.7 34.9,428.6 36.3,428.6L36.3,410.9L33,410.9L33,424Z" style="fill:white;fill-rule:nonzero;"/>
            <path d="M-32.8,393C-33.5,390.2 -35.1,388.4 -37.8,387.5C-40.9,386.4 -44.1,387.1 -47.3,386.9L-47.3,404.6L-40.8,404.6C-40.1,404.6 -39.5,404.5 -38.8,404.3C-33.9,402.9 -31.5,398.4 -32.8,393ZM-37.4,399.4C-38.9,401.6 -41.1,401.5 -43.4,401.4L-43.4,389.9C-41.1,389.8 -38.9,389.6 -37.4,391.7C-36.1,393.5 -36.1,397.5 -37.4,399.4Z" style="fill:white;fill-rule:nonzero;"/>
            <path d="M64.8,396.9C65.3,396.5 65.8,396.3 66.2,395.9C67.8,394.6 68.2,392.9 67.9,390.9C67.6,389 66.5,387.6 64.6,387.3C61.7,386.9 58.7,386.8 55.8,386.6L55.8,404.5L59.5,404.5L59.5,398C61.4,397.6 61.4,397.6 62.3,399.1C63.3,400.7 64.3,402.3 65.3,403.9C65.5,404.2 65.9,404.6 66.2,404.6C67.3,404.7 68.5,404.6 69.9,404.6L64.8,396.9ZM63.7,393.5C62.8,395 61.1,394.7 59.6,394.7L59.6,390C61.1,390 62.8,389.6 63.7,391C64.1,391.6 64.1,392.9 63.7,393.5Z" style="fill:white;fill-rule:nonzero;"/>
            <path d="M47.7,418.5L47.7,421.5L50.9,421.5L50.9,425.1C48.2,425.9 46.1,425.4 44.9,423.7C43.5,421.6 43.6,417.5 45.1,415.5C46.1,414.2 47.3,413.5 49,413.6C50.5,413.7 51.9,414 53.5,414.2L54.6,411.5C51.9,410.4 49.3,410.1 46.6,410.7C43.1,411.5 40.8,413.7 40.3,417.3C40.1,419.3 40.1,421.2 40.6,423.2C41.2,425.9 43,427.8 45.8,428.4C48.5,428.9 51.2,428.8 53.8,428C54.1,427.9 54.6,427.5 54.6,427.2C54.7,424.4 54.6,421.5 54.6,418.7L47.7,418.5Z" style="fill:white;fill-rule:nonzero;"/>
            <path d="M34.1,386.9L34.1,398.1C34.1,400.5 32.9,401.6 30.6,401.6C28.3,401.6 27.2,400.5 27.1,398.1L27.1,386.9L23.4,386.9L23.4,399.2C23.4,400.9 24.2,402.5 25.6,403.4C28.4,405.3 31.4,405.2 34.4,403.9C37,402.7 37.7,400.4 37.7,397.8L37.7,386.9L34.1,386.9Z" style="fill:white;fill-rule:nonzero;"/>
            <path d="M-50.2,404.6C-50.4,403.9 -50.6,403.4 -50.7,402.9C-52.2,398.6 -53.7,394.4 -55.3,390.1C-56.5,386.8 -56.5,386.8 -60.1,386.8C-60.9,386.8 -61.3,387.1 -61.5,387.9C-63,392.3 -64.5,396.6 -66.1,401C-66.5,402.1 -66.9,403.3 -67.3,404.6C-66.5,404.6 -65.9,404.5 -65.3,404.6C-63.7,404.9 -63,404.3 -62.6,402.7C-62,400.3 -61.9,400.3 -59.4,400.4C-58.1,400.4 -56.5,400 -55.6,400.6C-54.8,401.1 -54.8,402.7 -54.3,403.8C-54.1,404.2 -53.8,404.4 -53.4,404.5C-52.4,404.7 -51.4,404.6 -50.2,404.6ZM-60.9,397.1L-58.6,389.7L-56.3,397.1L-60.9,397.1Z" style="fill:white;fill-rule:nonzero;"/>
            <path d="M20.9,404.2C19.3,399.5 17.6,394.8 16,390.2C14.8,386.8 14.8,386.8 11.1,387C10.6,387.1 10.2,387.4 9.9,387.9C9.3,389.3 8.8,390.8 8.3,392.2C6.9,396.3 5.4,400.4 4,404.7C5,404.7 5.7,404.6 6.4,404.7C7.7,404.9 8.2,404.3 8.6,403.1C9.3,400.4 9.4,400.4 12.3,400.4C15.8,400.4 15.8,400.4 17,403.7C17.1,404.1 17.5,404.6 17.9,404.6C18.9,404.7 20,404.7 21,404.6C20.9,404.5 20.9,404.3 20.9,404.2ZM10.4,397.1L12.5,390.2L12.8,390.2L14.9,397.1L10.4,397.1Z" style="fill:white;fill-rule:nonzero;"/>
            <path d="M16,410.9L12.5,410.9L12.5,418.5C12.5,420 12.4,421.5 12.3,423C12.1,424.7 10.9,425.4 9,425.4C7,425.4 5.9,424.7 5.6,423C5.4,422 5.4,421.1 5.4,420.1L5.4,411L1.9,411C1.9,415.3 1.7,419.5 2,423.7C2.1,426.1 3.8,427.7 6.1,428.2C7.6,428.6 9.1,428.6 10.7,428.4C14.5,427.8 16.2,425.7 16.2,421.8L16.2,411.9C16.1,411.6 16,411.3 16,410.9Z" style="fill:white;fill-rule:nonzero;"/>
            <path d="M-18.7,389.8L-18.7,386.9L-28.7,386.9L-28.7,404.5L-18.7,404.5L-18.7,401.3L-25,401.3L-25,396.8L-19.1,396.8L-19.1,393.8L-25,393.8L-25,389.8L-18.7,389.8Z" style="fill:white;fill-rule:nonzero;"/>
            <path d="M51.7,401.4L45.4,401.4L45.4,396.8L51.3,396.8L51.3,393.7L45.5,393.7L45.5,389.8L51.7,389.8L51.7,386.9L41.7,386.9L41.7,404.5L51.7,404.5L51.7,401.4Z" style="fill:white;fill-rule:nonzero;"/>
            <path d="M-56.8,419.3C-58,418.5 -59.3,417.9 -60.6,417.2C-61.5,416.7 -62.4,416.1 -62.1,414.9C-61.8,413.6 -60.7,413.4 -59.6,413.5C-58.3,413.7 -57.1,414 -55.7,414.3L-54.6,411.6C-56.7,410.5 -58.7,410.1 -60.9,410.3C-63.9,410.6 -65.8,412.6 -65.8,415.4C-65.8,417.8 -64.4,419.3 -62.4,420.4C-61.4,420.9 -60.2,421.3 -59.3,422C-58.7,422.5 -58.1,423.5 -58.3,424.1C-58.4,424.7 -59.5,425.2 -60.2,425.4C-60.9,425.6 -61.8,425.4 -62.6,425.2C-63.7,425 -64.8,424.6 -66,424.2C-66,425.1 -66.1,425.9 -66,426.7C-65.9,427.2 -65.5,427.8 -65.1,427.9C-62.8,428.8 -60.3,428.9 -58,428.2C-56,427.6 -54.7,426.2 -54.4,424.1C-54.3,422.1 -55,420.4 -56.8,419.3Z" style="fill:white;fill-rule:nonzero;"/>
            <path d="M-19,377.1L-19.3,377.2C-22.1,372.9 -24.9,368.7 -27.6,364.3C-28.4,363 -29.3,362.5 -30.8,362.9L-30.8,380.4L-29,380.4L-29,365.7C-25.9,370.3 -23,374.7 -20.2,379.2C-19.4,380.5 -18.5,380.8 -17.1,380.4L-17.1,362.9L-19,362.9L-19,377.1Z" style="fill:white;fill-rule:nonzero;"/>
            <path d="M-27.4,428.6L-23.7,428.6L-23.7,421.5L-17.8,421.5L-17.8,418.5L-23.6,418.5L-23.6,413.9L-17.3,413.9L-17.3,411L-27.4,411L-27.4,428.6Z" style="fill:white;fill-rule:nonzero;"/>
            <path d="M26.4,380.4C31,380 33.6,377.6 34.3,373.2C35,368.4 32.8,364.2 28.8,363.3C26,362.7 23.1,362.8 20.2,362.6L20.2,380.4C22.4,380.4 24.4,380.6 26.4,380.4ZM22.2,364.6C25.4,364.6 28.9,364 30.9,367.2C32.7,370 32.6,373.1 30.9,375.9C28.9,379.2 25.5,378.9 22.1,378.8L22.1,364.6L22.2,364.6Z" style="fill:white;fill-rule:nonzero;"/>
            <path d="M-52.4,414.1L-47.7,414.1L-47.7,428.5L-43.9,428.5L-43.9,414L-39.2,414L-39.2,411L-52.4,411L-52.4,414.1Z" style="fill:white;fill-rule:nonzero;"/>
            <path d="M-14.7,414.1L-10,414.1L-10,428.5L-6.3,428.5L-6.3,414L-1.5,414L-1.5,411L-14.7,411L-14.7,414.1Z" style="fill:white;fill-rule:nonzero;"/>
            <path d="M-43,380.8C-38.6,380.9 -35.5,378.5 -34.8,374.3C-34.6,372.9 -34.5,371.4 -34.7,370C-35.2,365.6 -38.3,362.9 -42.7,362.9C-47.2,362.9 -50.1,365.3 -50.7,369.8C-50.9,371.2 -50.9,372.7 -50.7,374.1C-50.1,378.2 -47.3,380.7 -43,380.8ZM-48.2,368.9C-47.6,365.9 -45.5,364.5 -42.4,364.5C-39.4,364.5 -37.5,366 -36.9,369C-36.7,369.8 -36.6,370.7 -36.6,371.5C-36.7,372.5 -36.7,373.2 -36.8,374C-37.4,377.2 -39.3,378.9 -42.4,379C-45.5,379.1 -47.8,377.4 -48.3,374.2C-48.6,372.4 -48.6,370.6 -48.2,368.9Z" style="fill:white;fill-rule:nonzero;"/>
            <path d="M-10.6,373.1L-8.5,373.1C-7.2,372.9 -6.5,373.4 -5.9,374.6C-5.1,376.2 -4.1,377.6 -3.4,379.1C-2.7,380.6 -1.7,380.6 -0.2,380.4L-4.9,372.6C-4.6,372.4 -4.3,372.3 -4.1,372.1C-2,370.9 -1.1,369.1 -1.5,366.8C-1.9,364.5 -3.1,363.3 -5.6,363C-7.9,362.8 -10.2,363 -12.6,363L-12.6,380.4L-10.6,380.4L-10.6,373.1ZM-10.5,364.6C-8.8,364.7 -7.1,364.7 -5.5,365C-4.1,365.2 -3.6,366.3 -3.5,367.7C-3.5,369.1 -3.7,370.6 -5.3,370.9C-6.9,371.3 -8.7,371.3 -10.5,371.5L-10.5,364.6Z" style="fill:white;fill-rule:nonzero;"/>
            <path d="M-63,375.4C-63.2,373.8 -62.4,372.8 -61,372C-59.2,374.4 -57.3,376.7 -55.6,379.2C-54.7,380.4 -53.8,380.7 -52.3,380.4L-59.6,370.5L-52.6,362.9C-54.2,362.5 -55.2,363 -56.1,364.1C-58,366.3 -60,368.4 -62,370.5C-62.3,370.8 -62.7,371.1 -63,371.4L-63,362.9L-64.9,362.9L-64.9,380.5L-62.9,380.5C-62.9,378.7 -62.8,377 -63,375.4Z" style="fill:white;fill-rule:nonzero;"/>
            <path d="M4.5,379.2C4.7,378.6 4.9,378.1 5.1,377.6C6.1,375 6.1,374.9 8.9,375C10.3,375 12.1,374.6 13.1,375.3C14.1,376 14.4,377.8 14.8,379.1C15.2,380.4 15.8,381 17.4,380.5L11,364.2C10.9,364 10.9,363.7 10.7,363.5C10.3,363.2 9.8,362.9 9.4,362.9C8.9,363 8.6,363.3 8.4,363.8C6.3,368.9 4.3,374.1 2.3,379.3C2.1,379.7 2,380.1 1.9,380.5C3.4,380.8 4.2,380.5 4.5,379.2ZM9.8,365.2L12.6,372.9L7.1,372.9L9.8,365.2Z" style="fill:white;fill-rule:nonzero;"/>
            <rect x="-35.5" y="411" width="3.6" height="17.6" style="fill:white;"/>
        </g>
    </g>
</svg>
